version 1
nodes
0 "bone_0" -1
1 "bone_1" 0
2 "bone_2" 1
3 "bone_3" 0
4 "bone_4" 3
5 "bone_5" 4
6 "bone_6" 0
7 "bone_7" 6
8 "bone_8" 7
9 "bone_9" 1
10 "bone_10" 9
11 "bone_11" 1
12 "bone_12" 11
end
skeleton
time 0
0 0 0.87 0 0 0 0
1 0 0.30999994 0 0 0 0
2 0 0.33000004 0 0 0 -0
3 0 -0.01999998 -0.14 0 0 -0.48
4 0.025 -0.39000002 -0.010000005 0 0 0.12
5 -0.010000001 -0.34 0 0 0 -0.042
6 0 -0.01999998 0.14 0 0 0.48
7 0.025 -0.39000002 0.010000005 0 0 0.35
8 -0.010000001 -0.34 0 0 0 -0.122499995
9 0 0.17000008 -0.28 0 0 -0.048
10 0.09 -0.26999998 -0.03999999 0 0 -0
11 0 0.17000008 0.28 0 0 0.048
12 0.09 -0.26999998 0.03999999 0 0 -0
time 1
0 0 0.87 0 0 0 0
1 0 0.30999994 0 0 0 0.0014960967
2 0 0.33000004 0 0 0 -0.00089765806
3 0 -0.01999998 -0.14 0 0 -0.44
4 0.025 -0.39000002 -0.010000005 0 0 0.16
5 -0.010000001 -0.34 0 0 0 -0.055999998
6 0 -0.01999998 0.14 0 0 0.42
7 0.025 -0.39000002 0.010000005 0 0 0.2825
8 -0.010000001 -0.34 0 0 0 -0.098875
9 0 0.17000008 -0.28 0 0 -0.044
10 0.09 -0.26999998 -0.03999999 0 0 -0
11 0 0.17000008 0.28 0 0 0.042
12 0.09 -0.26999998 0.03999999 0 0 -0
time 2
0 0 0.87 0 0 0 0
1 0 0.30999994 0 0 0 0.0029688475
2 0 0.33000004 0 0 0 -0.0017813086
3 0 -0.01999998 -0.14 0 0 -0.39999998
4 0.025 -0.39000002 -0.010000005 0 0 0.19999999
5 -0.010000001 -0.34 0 0 0 -0.06999999
6 0 -0.01999998 0.14 0 0 0.35999998
7 0.025 -0.39000002 0.010000005 0 0 0.215
8 -0.010000001 -0.34 0 0 0 -0.07525
9 0 0.17000008 -0.28 0 0 -0.04
10 0.09 -0.26999998 -0.03999999 0 0 -0
11 0 0.17000008 0.28 0 0 0.036
12 0.09 -0.26999998 0.03999999 0 0 -0
time 3
0 0 0.87 0 0 0 0
1 0 0.30999994 0 0 0 0.0043952707
2 0 0.33000004 0 0 0 -0.0026371626
3 0 -0.01999998 -0.14 0 0 -0.35999998
4 0.025 -0.39000002 -0.010000005 0 0 0.24
5 -0.010000001 -0.34 0 0 0 -0.084
6 0 -0.01999998 0.14 0 0 0.3
7 0.025 -0.39000002 0.010000005 0 0 0.14750001
8 -0.010000001 -0.34 0 0 0 -0.051625002
9 0 0.17000008 -0.28 0 0 -0.036
10 0.09 -0.26999998 -0.03999999 0 0 -0
11 0 0.17000008 0.28 0 0 0.030000001
12 0.09 -0.26999998 0.03999999 0 0 -0
time 4
0 0 0.87 0 0 0 0
1 0 0.30999994 0 0 0 0.0057531064
2 0 0.33000004 0 0 0 -0.003451864
3 0 -0.01999998 -0.14 0 0 -0.32
4 0.025 -0.39000002 -0.010000005 0 0 0.28
5 -0.010000001 -0.34 0 0 0 -0.098
6 0 -0.01999998 0.14 0 0 0.24
7 0.025 -0.39000002 0.010000005 0 0 0.08
8 -0.010000001 -0.34 0 0 0 -0.027999999
9 0 0.17000008 -0.28 0 0 -0.032
10 0.09 -0.26999998 -0.03999999 0 0 -0
11 0 0.17000008 0.28 0 0 0.024
12 0.09 -0.26999998 0.03999999 0 0 -0
time 5
0 0 0.87 0 0 0 0
1 0 0.30999994 0 0 0 0.0070211673
2 0 0.33000004 0 0 0 -0.0042127008
3 0 -0.01999998 -0.14 0 0 -0.24
4 0.025 -0.39000002 -0.010000005 0 0 0.3725
5 -0.010000001 -0.34 0 0 0 -0.130375
6 0 -0.01999998 0.14 0 0 0.15
7 0.025 -0.39000002 0.010000005 0 0 0.074999996
8 -0.010000001 -0.34 0 0 0 -0.026249997
9 0 0.17000008 -0.28 0 0 -0.024
10 0.09 -0.26999998 -0.03999999 0 0 -0
11 0 0.17000008 0.28 0 0 0.015000001
12 0.09 -0.26999998 0.03999999 0 0 -0
time 6
0 0 0.87 0 0 0 0
1 0 0.30999994 0 0 0 0.008179666
2 0 0.33000004 0 0 0 -0.0049077994
3 0 -0.01999998 -0.14 0 0 -0.16
4 0.025 -0.39000002 -0.010000005 0 0 0.46499997
5 -0.010000001 -0.34 0 0 0 -0.16274999
6 0 -0.01999998 0.14 0 0 0.060000002
7 0.025 -0.39000002 0.010000005 0 0 0.07
8 -0.010000001 -0.34 0 0 0 -0.0245
9 0 0.17000008 -0.28 0 0 -0.016
10 0.09 -0.26999998 -0.03999999 0 0 -0
11 0 0.17000008 0.28 0 0 0.0060000005
12 0.09 -0.26999998 0.03999999 0 0 -0
time 7
0 0 0.87 0 0 0 0
1 0 0.30999994 0 0 0 0.009210522
2 0 0.33000004 0 0 0 -0.0055263136
3 0 -0.01999998 -0.14 0 0 -0.08
4 0.025 -0.39000002 -0.010000005 0 0 0.5575
5 -0.010000001 -0.34 0 0 0 -0.195125
6 0 -0.01999998 0.14 0 0 -0.029999986
7 0.025 -0.39000002 0.010000005 0 0 0.065
8 -0.010000001 -0.34 0 0 0 -0.02275
9 0 0.17000008 -0.28 0 0 -0.008
10 0.09 -0.26999998 -0.03999999 0 0 -0
11 0 0.17000008 0.28 0 0 -0.0029999986
12 0.09 -0.26999998 0.03999999 0 0 -0
time 8
0 0 0.87 0 0 0 0
1 0 0.30999994 0 0 0 0.010097652
2 0 0.33000004 0 0 0 -0.0060585914
3 0 -0.01999998 -0.14 0 0 0
4 0.025 -0.39000002 -0.010000005 0 0 0.65
5 -0.010000001 -0.34 0 0 0 -0.22749999
6 0 -0.01999998 0.14 0 0 -0.12
7 0.025 -0.39000002 0.010000005 0 0 0.06
8 -0.010000001 -0.34 0 0 0 -0.021
9 0 0.17000008 -0.28 0 0 0
10 0.09 -0.26999998 -0.03999999 0 0 -0
11 0 0.17000008 0.28 0 0 -0.012
12 0.09 -0.26999998 0.03999999 0 0 -0
time 9
0 0 0.87 0 0 0 0
1 0 0.30999994 0 0 0 0.010827211
2 0 0.33000004 0 0 0 -0.0064963265
3 0 -0.01999998 -0.14 0 0 0.08
4 0.025 -0.39000002 -0.010000005 0 0 0.6925
5 -0.010000001 -0.34 0 0 0 -0.242375
6 0 -0.01999998 0.14 0 0 -0.185
7 0.025 -0.39000002 0.010000005 0 0 0.065
8 -0.010000001 -0.34 0 0 0 -0.02275
9 0 0.17000008 -0.28 0 0 0.008
10 0.09 -0.26999998 -0.03999999 0 0 -0
11 0 0.17000008 0.28 0 0 -0.0185
12 0.09 -0.26999998 0.03999999 0 0 -0
time 10
0 0 0.87 0 0 0 0
1 0 0.30999994 0 0 0 0.011387816
2 0 0.33000004 0 0 0 -0.0068326895
3 0 -0.01999998 -0.14 0 0 0.16
4 0.025 -0.39000002 -0.010000005 0 0 0.735
5 -0.010000001 -0.34 0 0 0 -0.25725
6 0 -0.01999998 0.14 0 0 -0.25
7 0.025 -0.39000002 0.010000005 0 0 0.07
8 -0.010000001 -0.34 0 0 0 -0.0245
9 0 0.17000008 -0.28 0 0 0.016
10 0.09 -0.26999998 -0.03999999 0 0 -0
11 0 0.17000008 0.28 0 0 -0.025
12 0.09 -0.26999998 0.03999999 0 0 -0
time 11
0 0 0.87 0 0 0 0
1 0 0.30999994 0 0 0 0.011770717
2 0 0.33000004 0 0 0 -0.0070624305
3 0 -0.01999998 -0.14 0 0 0.24
4 0.025 -0.39000002 -0.010000005 0 0 0.7775
5 -0.010000001 -0.34 0 0 0 -0.27212498
6 0 -0.01999998 0.14 0 0 -0.315
7 0.025 -0.39000002 0.010000005 0 0 0.074999996
8 -0.010000001 -0.34 0 0 0 -0.026249997
9 0 0.17000008 -0.28 0 0 0.024
10 0.09 -0.26999998 -0.03999999 0 0 -0
11 0 0.17000008 0.28 0 0 -0.0315
12 0.09 -0.26999998 0.03999999 0 0 -0
time 12
0 0 0.87 0 0 0 0
1 0 0.30999994 0 0 0 0.01196994
2 0 0.33000004 0 0 0 -0.0071819643
3 0 -0.01999998 -0.14 0 0 0.32
4 0.025 -0.39000002 -0.010000005 0 0 0.82
5 -0.010000001 -0.34 0 0 0 -0.287
6 0 -0.01999998 0.14 0 0 -0.38
7 0.025 -0.39000002 0.010000005 0 0 0.08
8 -0.010000001 -0.34 0 0 0 -0.027999999
9 0 0.17000008 -0.28 0 0 0.032
10 0.09 -0.26999998 -0.03999999 0 0 -0
11 0 0.17000008 0.28 0 0 -0.038
12 0.09 -0.26999998 0.03999999 0 0 -0
time 13
0 0 0.87 0 0 0 0
1 0 0.30999994 0 0 0 0.011982376
2 0 0.33000004 0 0 0 -0.0071894256
3 0 -0.01999998 -0.14 0 0 0.35999998
4 0.025 -0.39000002 -0.010000005 0 0 0.7025
5 -0.010000001 -0.34 0 0 0 -0.24587499
6 0 -0.01999998 0.14 0 0 -0.405
7 0.025 -0.39000002 0.010000005 0 0 0.089999996
8 -0.010000001 -0.34 0 0 0 -0.031499997
9 0 0.17000008 -0.28 0 0 0.036
10 0.09 -0.26999998 -0.03999999 0 0 -0
11 0 0.17000008 0.28 0 0 -0.0405
12 0.09 -0.26999998 0.03999999 0 0 -0
time 14
0 0 0.87 0 0 0 0
1 0 0.30999994 0 0 0 0.011807832
2 0 0.33000004 0 0 0 -0.0070846993
3 0 -0.01999998 -0.14 0 0 0.39999998
4 0.025 -0.39000002 -0.010000005 0 0 0.585
5 -0.010000001 -0.34 0 0 0 -0.20474999
6 0 -0.01999998 0.14 0 0 -0.43
7 0.025 -0.39000002 0.010000005 0 0 0.099999994
8 -0.010000001 -0.34 0 0 0 -0.034999996
9 0 0.17000008 -0.28 0 0 0.04
10 0.09 -0.26999998 -0.03999999 0 0 -0
11 0 0.17000008 0.28 0 0 -0.043
12 0.09 -0.26999998 0.03999999 0 0 -0
time 15
0 0 0.87 0 0 0 0
1 0 0.30999994 0 0 0 0.01144903
2 0 0.33000004 0 0 0 -0.006869418
3 0 -0.01999998 -0.14 0 0 0.44
4 0.025 -0.39000002 -0.010000005 0 0 0.4675
5 -0.010000001 -0.34 0 0 0 -0.163625
6 0 -0.01999998 0.14 0 0 -0.45499998
7 0.025 -0.39000002 0.010000005 0 0 0.11
8 -0.010000001 -0.34 0 0 0 -0.0385
9 0 0.17000008 -0.28 0 0 0.044
10 0.09 -0.26999998 -0.03999999 0 0 -0
11 0 0.17000008 0.28 0 0 -0.0455
12 0.09 -0.26999998 0.03999999 0 0 -0
time 16
0 0 0.87 0 0 0 0
1 0 0.30999994 0 0 0 0.010911569
2 0 0.33000004 0 0 0 -0.0065469416
3 0 -0.01999998 -0.14 0 0 0.48
4 0.025 -0.39000002 -0.010000005 0 0 0.35
5 -0.010000001 -0.34 0 0 0 -0.122499995
6 0 -0.01999998 0.14 0 0 -0.48
7 0.025 -0.39000002 0.010000005 0 0 0.12
8 -0.010000001 -0.34 0 0 0 -0.042
9 0 0.17000008 -0.28 0 0 0.048
10 0.09 -0.26999998 -0.03999999 0 0 -0
11 0 0.17000008 0.28 0 0 -0.048
12 0.09 -0.26999998 0.03999999 0 0 -0
time 17
0 0 0.87 0 0 0 0
1 0 0.30999994 0 0 0 0.010203837
2 0 0.33000004 0 0 0 -0.0061223027
3 0 -0.01999998 -0.14 0 0 0.42
4 0.025 -0.39000002 -0.010000005 0 0 0.2825
5 -0.010000001 -0.34 0 0 0 -0.098875
6 0 -0.01999998 0.14 0 0 -0.44
7 0.025 -0.39000002 0.010000005 0 0 0.16
8 -0.010000001 -0.34 0 0 0 -0.055999998
9 0 0.17000008 -0.28 0 0 0.042
10 0.09 -0.26999998 -0.03999999 0 0 -0
11 0 0.17000008 0.28 0 0 -0.044
12 0.09 -0.26999998 0.03999999 0 0 -0
time 18
0 0 0.87 0 0 0 0
1 0 0.30999994 0 0 0 0.009336879
2 0 0.33000004 0 0 0 -0.0056021274
3 0 -0.01999998 -0.14 0 0 0.35999998
4 0.025 -0.39000002 -0.010000005 0 0 0.215
5 -0.010000001 -0.34 0 0 0 -0.07525
6 0 -0.01999998 0.14 0 0 -0.39999998
7 0.025 -0.39000002 0.010000005 0 0 0.19999999
8 -0.010000001 -0.34 0 0 0 -0.06999999
9 0 0.17000008 -0.28 0 0 0.036
10 0.09 -0.26999998 -0.03999999 0 0 -0
11 0 0.17000008 0.28 0 0 -0.04
12 0.09 -0.26999998 0.03999999 0 0 -0
time 19
0 0 0.87 0 0 0 0
1 0 0.30999994 0 0 0 0.008324221
2 0 0.33000004 0 0 0 -0.0049945326
3 0 -0.01999998 -0.14 0 0 0.3
4 0.025 -0.39000002 -0.010000005 0 0 0.14750001
5 -0.010000001 -0.34 0 0 0 -0.051625002
6 0 -0.01999998 0.14 0 0 -0.35999998
7 0.025 -0.39000002 0.010000005 0 0 0.24
8 -0.010000001 -0.34 0 0 0 -0.084
9 0 0.17000008 -0.28 0 0 0.030000001
10 0.09 -0.26999998 -0.03999999 0 0 -0
11 0 0.17000008 0.28 0 0 -0.036
12 0.09 -0.26999998 0.03999999 0 0 -0
time 20
0 0 0.87 0 0 0 0
1 0 0.30999994 0 0 0 0.0071816654
2 0 0.33000004 0 0 0 -0.0043089995
3 0 -0.01999998 -0.14 0 0 0.24
4 0.025 -0.39000002 -0.010000005 0 0 0.08
5 -0.010000001 -0.34 0 0 0 -0.027999999
6 0 -0.01999998 0.14 0 0 -0.32
7 0.025 -0.39000002 0.010000005 0 0 0.28
8 -0.010000001 -0.34 0 0 0 -0.098
9 0 0.17000008 -0.28 0 0 0.024
10 0.09 -0.26999998 -0.03999999 0 0 -0
11 0 0.17000008 0.28 0 0 -0.032
12 0.09 -0.26999998 0.03999999 0 0 -0
time 21
0 0 0.87 0 0 0 0
1 0 0.30999994 0 0 0 0.0059270435
2 0 0.33000004 0 0 0 -0.0035562261
3 0 -0.01999998 -0.14 0 0 0.15
4 0.025 -0.39000002 -0.010000005 0 0 0.074999996
5 -0.010000001 -0.34 0 0 0 -0.026249997
6 0 -0.01999998 0.14 0 0 -0.24
7 0.025 -0.39000002 0.010000005 0 0 0.3725
8 -0.010000001 -0.34 0 0 0 -0.130375
9 0 0.17000008 -0.28 0 0 0.015000001
10 0.09 -0.26999998 -0.03999999 0 0 -0
11 0 0.17000008 0.28 0 0 -0.024
12 0.09 -0.26999998 0.03999999 0 0 -0
time 22
0 0 0.87 0 0 0 0
1 0 0.30999994 0 0 0 0.004579932
2 0 0.33000004 0 0 0 -0.0027479592
3 0 -0.01999998 -0.14 0 0 0.060000002
4 0.025 -0.39000002 -0.010000005 0 0 0.07
5 -0.010000001 -0.34 0 0 0 -0.0245
6 0 -0.01999998 0.14 0 0 -0.16
7 0.025 -0.39000002 0.010000005 0 0 0.46499997
8 -0.010000001 -0.34 0 0 0 -0.16274999
9 0 0.17000008 -0.28 0 0 0.0060000005
10 0.09 -0.26999998 -0.03999999 0 0 -0
11 0 0.17000008 0.28 0 0 -0.016
12 0.09 -0.26999998 0.03999999 0 0 -0
time 23
0 0 0.87 0 0 0 0
1 0 0.30999994 0 0 0 0.0031613521
2 0 0.33000004 0 0 0 -0.0018968113
3 0 -0.01999998 -0.14 0 0 -0.029999986
4 0.025 -0.39000002 -0.010000005 0 0 0.065
5 -0.010000001 -0.34 0 0 0 -0.02275
6 0 -0.01999998 0.14 0 0 -0.08
7 0.025 -0.39000002 0.010000005 0 0 0.5575
8 -0.010000001 -0.34 0 0 0 -0.195125
9 0 0.17000008 -0.28 0 0 -0.0029999986
10 0.09 -0.26999998 -0.03999999 0 0 -0
11 0 0.17000008 0.28 0 0 -0.008
12 0.09 -0.26999998 0.03999999 0 0 -0
time 24
0 0 0.87 0 0 0 0
1 0 0.30999994 0 0 0 0.00169344
2 0 0.33000004 0 0 0 -0.0010160641
3 0 -0.01999998 -0.14 0 0 -0.12
4 0.025 -0.39000002 -0.010000005 0 0 0.06
5 -0.010000001 -0.34 0 0 0 -0.021
6 0 -0.01999998 0.14 0 0 0
7 0.025 -0.39000002 0.010000005 0 0 0.65
8 -0.010000001 -0.34 0 0 0 -0.22749999
9 0 0.17000008 -0.28 0 0 -0.012
10 0.09 -0.26999998 -0.03999999 0 0 -0
11 0 0.17000008 0.28 0 0 0
12 0.09 -0.26999998 0.03999999 0 0 -0
time 25
0 0 0.87 0 0 0 0
1 0 0.30999994 0 0 0 0.0001991027
2 0 0.33000004 0 0 0 -0.00011946162
3 0 -0.01999998 -0.14 0 0 -0.185
4 0.025 -0.39000002 -0.010000005 0 0 0.065
5 -0.010000001 -0.34 0 0 0 -0.02275
6 0 -0.01999998 0.14 0 0 0.08
7 0.025 -0.39000002 0.010000005 0 0 0.6925
8 -0.010000001 -0.34 0 0 0 -0.242375
9 0 0.17000008 -0.28 0 0 -0.0185
10 0.09 -0.26999998 -0.03999999 0 0 -0
11 0 0.17000008 0.28 0 0 0.008
12 0.09 -0.26999998 0.03999999 0 0 -0
time 26
0 0 0.87 0 0 0 0
1 0 0.30999994 0 0 0 -0.0012983417
2 0 0.33000004 0 0 0 0.00077900506
3 0 -0.01999998 -0.14 0 0 -0.25
4 0.025 -0.39000002 -0.010000005 0 0 0.07
5 -0.010000001 -0.34 0 0 0 -0.0245
6 0 -0.01999998 0.14 0 0 0.16
7 0.025 -0.39000002 0.010000005 0 0 0.735
8 -0.010000001 -0.34 0 0 0 -0.25725
9 0 0.17000008 -0.28 0 0 -0.025
10 0.09 -0.26999998 -0.03999999 0 0 -0
11 0 0.17000008 0.28 0 0 0.016
12 0.09 -0.26999998 0.03999999 0 0 -0
time 27
0 0 0.87 0 0 0 0
1 0 0.30999994 0 0 0 -0.0027755257
2 0 0.33000004 0 0 0 0.0016653155
3 0 -0.01999998 -0.14 0 0 -0.315
4 0.025 -0.39000002 -0.010000005 0 0 0.074999996
5 -0.010000001 -0.34 0 0 0 -0.026249997
6 0 -0.01999998 0.14 0 0 0.24
7 0.025 -0.39000002 0.010000005 0 0 0.7775
8 -0.010000001 -0.34 0 0 0 -0.27212498
9 0 0.17000008 -0.28 0 0 -0.0315
10 0.09 -0.26999998 -0.03999999 0 0 -0
11 0 0.17000008 0.28 0 0 0.024
12 0.09 -0.26999998 0.03999999 0 0 -0
time 28
0 0 0.87 0 0 0 0
1 0 0.30999994 0 0 0 -0.0042093988
2 0 0.33000004 0 0 0 0.0025256393
3 0 -0.01999998 -0.14 0 0 -0.38
4 0.025 -0.39000002 -0.010000005 0 0 0.08
5 -0.010000001 -0.34 0 0 0 -0.027999999
6 0 -0.01999998 0.14 0 0 0.32
7 0.025 -0.39000002 0.010000005 0 0 0.82
8 -0.010000001 -0.34 0 0 0 -0.287
9 0 0.17000008 -0.28 0 0 -0.038
10 0.09 -0.26999998 -0.03999999 0 0 -0
11 0 0.17000008 0.28 0 0 0.032
12 0.09 -0.26999998 0.03999999 0 0 -0
time 29
0 0 0.87 0 0 0 0
1 0 0.30999994 0 0 0 -0.005577585
2 0 0.33000004 0 0 0 0.0033465512
3 0 -0.01999998 -0.14 0 0 -0.405
4 0.025 -0.39000002 -0.010000005 0 0 0.089999996
5 -0.010000001 -0.34 0 0 0 -0.031499997
6 0 -0.01999998 0.14 0 0 0.35999998
7 0.025 -0.39000002 0.010000005 0 0 0.7025
8 -0.010000001 -0.34 0 0 0 -0.24587499
9 0 0.17000008 -0.28 0 0 -0.0405
10 0.09 -0.26999998 -0.03999999 0 0 -0
11 0 0.17000008 0.28 0 0 0.036
12 0.09 -0.26999998 0.03999999 0 0 -0
time 30
0 0 0.87 0 0 0 0
1 0 0.30999994 0 0 0 -0.0068587363
2 0 0.33000004 0 0 0 0.004115242
3 0 -0.01999998 -0.14 0 0 -0.43
4 0.025 -0.39000002 -0.010000005 0 0 0.099999994
5 -0.010000001 -0.34 0 0 0 -0.034999996
6 0 -0.01999998 0.14 0 0 0.39999998
7 0.025 -0.39000002 0.010000005 0 0 0.585
8 -0.010000001 -0.34 0 0 0 -0.20474999
9 0 0.17000008 -0.28 0 0 -0.043
10 0.09 -0.26999998 -0.03999999 0 0 -0
11 0 0.17000008 0.28 0 0 0.04
12 0.09 -0.26999998 0.03999999 0 0 -0
time 31
0 0 0.87 0 0 0 0
1 0 0.30999994 0 0 0 -0.008032857
2 0 0.33000004 0 0 0 0.0048197145
3 0 -0.01999998 -0.14 0 0 -0.45499998
4 0.025 -0.39000002 -0.010000005 0 0 0.11
5 -0.010000001 -0.34 0 0 0 -0.0385
6 0 -0.01999998 0.14 0 0 0.44
7 0.025 -0.39000002 0.010000005 0 0 0.4675
8 -0.010000001 -0.34 0 0 0 -0.163625
9 0 0.17000008 -0.28 0 0 -0.0455
10 0.09 -0.26999998 -0.03999999 0 0 -0
11 0 0.17000008 0.28 0 0 0.044
12 0.09 -0.26999998 0.03999999 0 0 -0
time 32
0 0 0.87 0 0 0 0
1 0 0.30999994 0 0 0 -0.00908163
2 0 0.33000004 0 0 0 0.0054489784
3 0 -0.01999998 -0.14 0 0 -0.48
4 0.025 -0.39000002 -0.010000005 0 0 0.12
5 -0.010000001 -0.34 0 0 0 -0.042
6 0 -0.01999998 0.14 0 0 0.48
7 0.025 -0.39000002 0.010000005 0 0 0.35
8 -0.010000001 -0.34 0 0 0 -0.122499995
9 0 0.17000008 -0.28 0 0 -0.048
10 0.09 -0.26999998 -0.03999999 0 0 -0
11 0 0.17000008 0.28 0 0 0.048
12 0.09 -0.26999998 0.03999999 0 0 -0
end
