version 1
nodes
0 "bone_0" -1
1 "bone_1" 0
2 "bone_2" 1
3 "bone_3" 0
4 "bone_4" 3
5 "bone_5" 4
6 "bone_6" 0
7 "bone_7" 6
8 "bone_8" 7
9 "bone_9" 1
10 "bone_10" 9
11 "bone_11" 1
12 "bone_12" 11
end
skeleton
time 0
0 0 0.87 0 0 0 0
1 0 0.30999994 0 0 0 0
2 0 0.33000004 0 0 0 -0
3 0 -0.01999998 -0.14 0 0 -0
4 0.025 -0.39000002 -0.010000005 0 0 0
5 -0.010000001 -0.34 0 0 0 -0
6 0 -0.01999998 0.14 0 0 0
7 0.025 -0.39000002 0.010000005 0 0 0
8 -0.010000001 -0.34 0 0 0 -0
9 0 0.17000008 -0.28 0 0 0
10 0.09 -0.26999998 -0.03999999 0 0 -0
11 0 0.17000008 0.28 0 0 0
12 0.09 -0.26999998 0.03999999 0 0 -0
time 1
0 0 0.87 0 0 0 0
1 0 0.30999994 0 0 0 0.0014960967
2 0 0.33000004 0 0 0 -0.00089765806
3 0 -0.01999998 -0.14 0 0 -0.01960343
4 0.025 -0.39000002 -0.010000005 0 0 0.047048226
5 -0.010000001 -0.34 0 0 0 -0.016466878
6 0 -0.01999998 0.14 0 0 -0.01960343
7 0.025 -0.39000002 0.010000005 0 0 0.047048226
8 -0.010000001 -0.34 0 0 0 -0.016466878
9 0 0.17000008 -0.28 0 0 0
10 0.09 -0.26999998 -0.03999999 0 0 -0
11 0 0.17000008 0.28 0 0 0
12 0.09 -0.26999998 0.03999999 0 0 -0
time 2
0 0 0.87 0 0 0 0
1 0 0.30999994 0 0 0 0.0029688475
2 0 0.33000004 0 0 0 -0.0017813086
3 0 -0.01999998 -0.14 0 0 -0.039018065
4 0.025 -0.39000002 -0.010000005 0 0 0.09364335
5 -0.010000001 -0.34 0 0 0 -0.03277517
6 0 -0.01999998 0.14 0 0 -0.039018065
7 0.025 -0.39000002 0.010000005 0 0 0.09364335
8 -0.010000001 -0.34 0 0 0 -0.03277517
9 0 0.17000008 -0.28 0 0 0
10 0.09 -0.26999998 -0.03999999 0 0 -0
11 0 0.17000008 0.28 0 0 0
12 0.09 -0.26999998 0.03999999 0 0 -0
time 3
0 0 0.87 0 0 0 0
1 0 0.30999994 0 0 0 0.0043952707
2 0 0.33000004 0 0 0 -0.0026371626
3 0 -0.01999998 -0.14 0 0 -0.058056932
4 0.025 -0.39000002 -0.010000005 0 0 0.13933663
5 -0.010000001 -0.34 0 0 0 -0.04876782
6 0 -0.01999998 0.14 0 0 -0.058056932
7 0.025 -0.39000002 0.010000005 0 0 0.13933663
8 -0.010000001 -0.34 0 0 0 -0.04876782
9 0 0.17000008 -0.28 0 0 0
10 0.09 -0.26999998 -0.03999999 0 0 -0
11 0 0.17000008 0.28 0 0 0
12 0.09 -0.26999998 0.03999999 0 0 -0
time 4
0 0 0.87 0 0 0 0
1 0 0.30999994 0 0 0 0.0057531064
2 0 0.33000004 0 0 0 -0.003451864
3 0 -0.01999998 -0.14 0 0 -0.07653669
4 0.025 -0.39000002 -0.010000005 0 0 0.18368806
5 -0.010000001 -0.34 0 0 0 -0.06429082
6 0 -0.01999998 0.14 0 0 -0.07653669
7 0.025 -0.39000002 0.010000005 0 0 0.18368806
8 -0.010000001 -0.34 0 0 0 -0.06429082
9 0 0.17000008 -0.28 0 0 0
10 0.09 -0.26999998 -0.03999999 0 0 -0
11 0 0.17000008 0.28 0 0 0
12 0.09 -0.26999998 0.03999999 0 0 -0
time 5
0 0 0.87 0 0 0 0
1 0 0.30999994 0 0 0 0.0070211673
2 0 0.33000004 0 0 0 -0.0042127008
3 0 -0.01999998 -0.14 0 0 -0.09427935
4 0.025 -0.39000002 -0.010000005 0 0 0.22627044
5 -0.010000001 -0.34 0 0 0 -0.07919465
6 0 -0.01999998 0.14 0 0 -0.09427935
7 0.025 -0.39000002 0.010000005 0 0 0.22627044
8 -0.010000001 -0.34 0 0 0 -0.07919465
9 0 0.17000008 -0.28 0 0 0
10 0.09 -0.26999998 -0.03999999 0 0 -0
11 0 0.17000008 0.28 0 0 0
12 0.09 -0.26999998 0.03999999 0 0 -0
time 6
0 0 0.87 0 0 0 0
1 0 0.30999994 0 0 0 0.008179666
2 0 0.33000004 0 0 0 -0.0049077994
3 0 -0.01999998 -0.14 0 0 -0.11111405
4 0.025 -0.39000002 -0.010000005 0 0 0.2666737
5 -0.010000001 -0.34 0 0 0 -0.0933358
6 0 -0.01999998 0.14 0 0 -0.11111405
7 0.025 -0.39000002 0.010000005 0 0 0.2666737
8 -0.010000001 -0.34 0 0 0 -0.0933358
9 0 0.17000008 -0.28 0 0 0
10 0.09 -0.26999998 -0.03999999 0 0 -0
11 0 0.17000008 0.28 0 0 0
12 0.09 -0.26999998 0.03999999 0 0 -0
time 7
0 0 0.87 0 0 0 0
1 0 0.30999994 0 0 0 0.009210522
2 0 0.33000004 0 0 0 -0.0055263136
3 0 -0.01999998 -0.14 0 0 -0.12687866
4 0.025 -0.39000002 -0.010000005 0 0 0.3045088
5 -0.010000001 -0.34 0 0 0 -0.10657808
6 0 -0.01999998 0.14 0 0 -0.12687866
7 0.025 -0.39000002 0.010000005 0 0 0.3045088
8 -0.010000001 -0.34 0 0 0 -0.10657808
9 0 0.17000008 -0.28 0 0 0
10 0.09 -0.26999998 -0.03999999 0 0 -0
11 0 0.17000008 0.28 0 0 0
12 0.09 -0.26999998 0.03999999 0 0 -0
time 8
0 0 0.87 0 0 0 0
1 0 0.30999994 0 0 0 0.010097652
2 0 0.33000004 0 0 0 -0.0060585914
3 0 -0.01999998 -0.14 0 0 -0.14142136
4 0.025 -0.39000002 -0.010000005 0 0 0.33941123
5 -0.010000001 -0.34 0 0 0 -0.11879393
6 0 -0.01999998 0.14 0 0 -0.14142136
7 0.025 -0.39000002 0.010000005 0 0 0.33941123
8 -0.010000001 -0.34 0 0 0 -0.11879393
9 0 0.17000008 -0.28 0 0 0
10 0.09 -0.26999998 -0.03999999 0 0 -0
11 0 0.17000008 0.28 0 0 0
12 0.09 -0.26999998 0.03999999 0 0 -0
time 9
0 0 0.87 0 0 0 0
1 0 0.30999994 0 0 0 0.010827211
2 0 0.33000004 0 0 0 -0.0064963265
3 0 -0.01999998 -0.14 0 0 -0.1546021
4 0.025 -0.39000002 -0.010000005 0 0 0.371045
5 -0.010000001 -0.34 0 0 0 -0.12986575
6 0 -0.01999998 0.14 0 0 -0.1546021
7 0.025 -0.39000002 0.010000005 0 0 0.371045
8 -0.010000001 -0.34 0 0 0 -0.12986575
9 0 0.17000008 -0.28 0 0 0
10 0.09 -0.26999998 -0.03999999 0 0 -0
11 0 0.17000008 0.28 0 0 0
12 0.09 -0.26999998 0.03999999 0 0 -0
time 10
0 0 0.87 0 0 0 0
1 0 0.30999994 0 0 0 0.011387816
2 0 0.33000004 0 0 0 -0.0068326895
3 0 -0.01999998 -0.14 0 0 -0.16629393
4 0.025 -0.39000002 -0.010000005 0 0 0.39910543
5 -0.010000001 -0.34 0 0 0 -0.1396869
6 0 -0.01999998 0.14 0 0 -0.16629393
7 0.025 -0.39000002 0.010000005 0 0 0.39910543
8 -0.010000001 -0.34 0 0 0 -0.1396869
9 0 0.17000008 -0.28 0 0 0
10 0.09 -0.26999998 -0.03999999 0 0 -0
11 0 0.17000008 0.28 0 0 0
12 0.09 -0.26999998 0.03999999 0 0 -0
time 11
0 0 0.87 0 0 0 0
1 0 0.30999994 0 0 0 0.011770717
2 0 0.33000004 0 0 0 -0.0070624305
3 0 -0.01999998 -0.14 0 0 -0.17638426
4 0.025 -0.39000002 -0.010000005 0 0 0.4233222
5 -0.010000001 -0.34 0 0 0 -0.14816277
6 0 -0.01999998 0.14 0 0 -0.17638426
7 0.025 -0.39000002 0.010000005 0 0 0.4233222
8 -0.010000001 -0.34 0 0 0 -0.14816277
9 0 0.17000008 -0.28 0 0 0
10 0.09 -0.26999998 -0.03999999 0 0 -0
11 0 0.17000008 0.28 0 0 0
12 0.09 -0.26999998 0.03999999 0 0 -0
time 12
0 0 0.87 0 0 0 0
1 0 0.30999994 0 0 0 0.01196994
2 0 0.33000004 0 0 0 -0.0071819643
3 0 -0.01999998 -0.14 0 0 -0.1847759
4 0.025 -0.39000002 -0.010000005 0 0 0.44346216
5 -0.010000001 -0.34 0 0 0 -0.15521176
6 0 -0.01999998 0.14 0 0 -0.1847759
7 0.025 -0.39000002 0.010000005 0 0 0.44346216
8 -0.010000001 -0.34 0 0 0 -0.15521176
9 0 0.17000008 -0.28 0 0 0
10 0.09 -0.26999998 -0.03999999 0 0 -0
11 0 0.17000008 0.28 0 0 0
12 0.09 -0.26999998 0.03999999 0 0 -0
time 13
0 0 0.87 0 0 0 0
1 0 0.30999994 0 0 0 0.011982376
2 0 0.33000004 0 0 0 -0.0071894256
3 0 -0.01999998 -0.14 0 0 -0.19138807
4 0.025 -0.39000002 -0.010000005 0 0 0.45933136
5 -0.010000001 -0.34 0 0 0 -0.16076598
6 0 -0.01999998 0.14 0 0 -0.19138807
7 0.025 -0.39000002 0.010000005 0 0 0.45933136
8 -0.010000001 -0.34 0 0 0 -0.16076598
9 0 0.17000008 -0.28 0 0 0
10 0.09 -0.26999998 -0.03999999 0 0 -0
11 0 0.17000008 0.28 0 0 0
12 0.09 -0.26999998 0.03999999 0 0 -0
time 14
0 0 0.87 0 0 0 0
1 0 0.30999994 0 0 0 0.011807832
2 0 0.33000004 0 0 0 -0.0070846993
3 0 -0.01999998 -0.14 0 0 -0.19615707
4 0.025 -0.39000002 -0.010000005 0 0 0.47077695
5 -0.010000001 -0.34 0 0 0 -0.16477193
6 0 -0.01999998 0.14 0 0 -0.19615707
7 0.025 -0.39000002 0.010000005 0 0 0.47077695
8 -0.010000001 -0.34 0 0 0 -0.16477193
9 0 0.17000008 -0.28 0 0 0
10 0.09 -0.26999998 -0.03999999 0 0 -0
11 0 0.17000008 0.28 0 0 0
12 0.09 -0.26999998 0.03999999 0 0 -0
time 15
0 0 0.87 0 0 0 0
1 0 0.30999994 0 0 0 0.01144903
2 0 0.33000004 0 0 0 -0.006869418
3 0 -0.01999998 -0.14 0 0 -0.19903694
4 0.025 -0.39000002 -0.010000005 0 0 0.47768864
5 -0.010000001 -0.34 0 0 0 -0.16719103
6 0 -0.01999998 0.14 0 0 -0.19903694
7 0.025 -0.39000002 0.010000005 0 0 0.47768864
8 -0.010000001 -0.34 0 0 0 -0.16719103
9 0 0.17000008 -0.28 0 0 0
10 0.09 -0.26999998 -0.03999999 0 0 -0
11 0 0.17000008 0.28 0 0 0
12 0.09 -0.26999998 0.03999999 0 0 -0
time 16
0 0 0.87 0 0 0 0
1 0 0.30999994 0 0 0 0.010911569
2 0 0.33000004 0 0 0 -0.0065469416
3 0 -0.01999998 -0.14 0 0 -0.2
4 0.025 -0.39000002 -0.010000005 0 0 0.48
5 -0.010000001 -0.34 0 0 0 -0.168
6 0 -0.01999998 0.14 0 0 -0.2
7 0.025 -0.39000002 0.010000005 0 0 0.48
8 -0.010000001 -0.34 0 0 0 -0.168
9 0 0.17000008 -0.28 0 0 0
10 0.09 -0.26999998 -0.03999999 0 0 -0
11 0 0.17000008 0.28 0 0 0
12 0.09 -0.26999998 0.03999999 0 0 -0
time 17
0 0 0.87 0 0 0 0
1 0 0.30999994 0 0 0 0.010203837
2 0 0.33000004 0 0 0 -0.0061223027
3 0 -0.01999998 -0.14 0 0 -0.19903694
4 0.025 -0.39000002 -0.010000005 0 0 0.47768864
5 -0.010000001 -0.34 0 0 0 -0.16719103
6 0 -0.01999998 0.14 0 0 -0.19903694
7 0.025 -0.39000002 0.010000005 0 0 0.47768864
8 -0.010000001 -0.34 0 0 0 -0.16719103
9 0 0.17000008 -0.28 0 0 0
10 0.09 -0.26999998 -0.03999999 0 0 -0
11 0 0.17000008 0.28 0 0 0
12 0.09 -0.26999998 0.03999999 0 0 -0
time 18
0 0 0.87 0 0 0 0
1 0 0.30999994 0 0 0 0.009336879
2 0 0.33000004 0 0 0 -0.0056021274
3 0 -0.01999998 -0.14 0 0 -0.19615705
4 0.025 -0.39000002 -0.010000005 0 0 0.47077692
5 -0.010000001 -0.34 0 0 0 -0.16477191
6 0 -0.01999998 0.14 0 0 -0.19615705
7 0.025 -0.39000002 0.010000005 0 0 0.47077692
8 -0.010000001 -0.34 0 0 0 -0.16477191
9 0 0.17000008 -0.28 0 0 0
10 0.09 -0.26999998 -0.03999999 0 0 -0
11 0 0.17000008 0.28 0 0 0
12 0.09 -0.26999998 0.03999999 0 0 -0
time 19
0 0 0.87 0 0 0 0
1 0 0.30999994 0 0 0 0.008324221
2 0 0.33000004 0 0 0 -0.0049945326
3 0 -0.01999998 -0.14 0 0 -0.19138806
4 0.025 -0.39000002 -0.010000005 0 0 0.45933133
5 -0.010000001 -0.34 0 0 0 -0.16076596
6 0 -0.01999998 0.14 0 0 -0.19138806
7 0.025 -0.39000002 0.010000005 0 0 0.45933133
8 -0.010000001 -0.34 0 0 0 -0.16076596
9 0 0.17000008 -0.28 0 0 0
10 0.09 -0.26999998 -0.03999999 0 0 -0
11 0 0.17000008 0.28 0 0 0
12 0.09 -0.26999998 0.03999999 0 0 -0
time 20
0 0 0.87 0 0 0 0
1 0 0.30999994 0 0 0 0.0071816654
2 0 0.33000004 0 0 0 -0.0043089995
3 0 -0.01999998 -0.14 0 0 -0.1847759
4 0.025 -0.39000002 -0.010000005 0 0 0.44346216
5 -0.010000001 -0.34 0 0 0 -0.15521176
6 0 -0.01999998 0.14 0 0 -0.1847759
7 0.025 -0.39000002 0.010000005 0 0 0.44346216
8 -0.010000001 -0.34 0 0 0 -0.15521176
9 0 0.17000008 -0.28 0 0 0
10 0.09 -0.26999998 -0.03999999 0 0 -0
11 0 0.17000008 0.28 0 0 0
12 0.09 -0.26999998 0.03999999 0 0 -0
time 21
0 0 0.87 0 0 0 0
1 0 0.30999994 0 0 0 0.0059270435
2 0 0.33000004 0 0 0 -0.0035562261
3 0 -0.01999998 -0.14 0 0 -0.17638426
4 0.025 -0.39000002 -0.010000005 0 0 0.42332217
5 -0.010000001 -0.34 0 0 0 -0.14816275
6 0 -0.01999998 0.14 0 0 -0.17638426
7 0.025 -0.39000002 0.010000005 0 0 0.42332217
8 -0.010000001 -0.34 0 0 0 -0.14816275
9 0 0.17000008 -0.28 0 0 0
10 0.09 -0.26999998 -0.03999999 0 0 -0
11 0 0.17000008 0.28 0 0 0
12 0.09 -0.26999998 0.03999999 0 0 -0
time 22
0 0 0.87 0 0 0 0
1 0 0.30999994 0 0 0 0.004579932
2 0 0.33000004 0 0 0 -0.0027479592
3 0 -0.01999998 -0.14 0 0 -0.1662939
4 0.025 -0.39000002 -0.010000005 0 0 0.39910537
5 -0.010000001 -0.34 0 0 0 -0.13968688
6 0 -0.01999998 0.14 0 0 -0.1662939
7 0.025 -0.39000002 0.010000005 0 0 0.39910537
8 -0.010000001 -0.34 0 0 0 -0.13968688
9 0 0.17000008 -0.28 0 0 0
10 0.09 -0.26999998 -0.03999999 0 0 -0
11 0 0.17000008 0.28 0 0 0
12 0.09 -0.26999998 0.03999999 0 0 -0
time 23
0 0 0.87 0 0 0 0
1 0 0.30999994 0 0 0 0.0031613521
2 0 0.33000004 0 0 0 -0.0018968113
3 0 -0.01999998 -0.14 0 0 -0.1546021
4 0.025 -0.39000002 -0.010000005 0 0 0.37104502
5 -0.010000001 -0.34 0 0 0 -0.12986575
6 0 -0.01999998 0.14 0 0 -0.1546021
7 0.025 -0.39000002 0.010000005 0 0 0.37104502
8 -0.010000001 -0.34 0 0 0 -0.12986575
9 0 0.17000008 -0.28 0 0 0
10 0.09 -0.26999998 -0.03999999 0 0 -0
11 0 0.17000008 0.28 0 0 0
12 0.09 -0.26999998 0.03999999 0 0 -0
time 24
0 0 0.87 0 0 0 0
1 0 0.30999994 0 0 0 0.00169344
2 0 0.33000004 0 0 0 -0.0010160641
3 0 -0.01999998 -0.14 0 0 -0.14142136
4 0.025 -0.39000002 -0.010000005 0 0 0.33941123
5 -0.010000001 -0.34 0 0 0 -0.11879393
6 0 -0.01999998 0.14 0 0 -0.14142136
7 0.025 -0.39000002 0.010000005 0 0 0.33941123
8 -0.010000001 -0.34 0 0 0 -0.11879393
9 0 0.17000008 -0.28 0 0 0
10 0.09 -0.26999998 -0.03999999 0 0 -0
11 0 0.17000008 0.28 0 0 0
12 0.09 -0.26999998 0.03999999 0 0 -0
time 25
0 0 0.87 0 0 0 0
1 0 0.30999994 0 0 0 0.0001991027
2 0 0.33000004 0 0 0 -0.00011946162
3 0 -0.01999998 -0.14 0 0 -0.12687866
4 0.025 -0.39000002 -0.010000005 0 0 0.30450878
5 -0.010000001 -0.34 0 0 0 -0.10657807
6 0 -0.01999998 0.14 0 0 -0.12687866
7 0.025 -0.39000002 0.010000005 0 0 0.30450878
8 -0.010000001 -0.34 0 0 0 -0.10657807
9 0 0.17000008 -0.28 0 0 0
10 0.09 -0.26999998 -0.03999999 0 0 -0
11 0 0.17000008 0.28 0 0 0
12 0.09 -0.26999998 0.03999999 0 0 -0
time 26
0 0 0.87 0 0 0 0
1 0 0.30999994 0 0 0 -0.0012983417
2 0 0.33000004 0 0 0 0.00077900506
3 0 -0.01999998 -0.14 0 0 -0.11111404
4 0.025 -0.39000002 -0.010000005 0 0 0.26667368
5 -0.010000001 -0.34 0 0 0 -0.093335785
6 0 -0.01999998 0.14 0 0 -0.11111404
7 0.025 -0.39000002 0.010000005 0 0 0.26667368
8 -0.010000001 -0.34 0 0 0 -0.093335785
9 0 0.17000008 -0.28 0 0 0
10 0.09 -0.26999998 -0.03999999 0 0 -0
11 0 0.17000008 0.28 0 0 0
12 0.09 -0.26999998 0.03999999 0 0 -0
time 27
0 0 0.87 0 0 0 0
1 0 0.30999994 0 0 0 -0.0027755257
2 0 0.33000004 0 0 0 0.0016653155
3 0 -0.01999998 -0.14 0 0 -0.09427933
4 0.025 -0.39000002 -0.010000005 0 0 0.22627038
5 -0.010000001 -0.34 0 0 0 -0.07919463
6 0 -0.01999998 0.14 0 0 -0.09427933
7 0.025 -0.39000002 0.010000005 0 0 0.22627038
8 -0.010000001 -0.34 0 0 0 -0.07919463
9 0 0.17000008 -0.28 0 0 0
10 0.09 -0.26999998 -0.03999999 0 0 -0
11 0 0.17000008 0.28 0 0 0
12 0.09 -0.26999998 0.03999999 0 0 -0
time 28
0 0 0.87 0 0 0 0
1 0 0.30999994 0 0 0 -0.0042093988
2 0 0.33000004 0 0 0 0.0025256393
3 0 -0.01999998 -0.14 0 0 -0.076536655
4 0.025 -0.39000002 -0.010000005 0 0 0.18368797
5 -0.010000001 -0.34 0 0 0 -0.06429079
6 0 -0.01999998 0.14 0 0 -0.076536655
7 0.025 -0.39000002 0.010000005 0 0 0.18368797
8 -0.010000001 -0.34 0 0 0 -0.06429079
9 0 0.17000008 -0.28 0 0 0
10 0.09 -0.26999998 -0.03999999 0 0 -0
11 0 0.17000008 0.28 0 0 0
12 0.09 -0.26999998 0.03999999 0 0 -0
time 29
0 0 0.87 0 0 0 0
1 0 0.30999994 0 0 0 -0.005577585
2 0 0.33000004 0 0 0 0.0033465512
3 0 -0.01999998 -0.14 0 0 -0.058056947
4 0.025 -0.39000002 -0.010000005 0 0 0.13933666
5 -0.010000001 -0.34 0 0 0 -0.04876783
6 0 -0.01999998 0.14 0 0 -0.058056947
7 0.025 -0.39000002 0.010000005 0 0 0.13933666
8 -0.010000001 -0.34 0 0 0 -0.04876783
9 0 0.17000008 -0.28 0 0 0
10 0.09 -0.26999998 -0.03999999 0 0 -0
11 0 0.17000008 0.28 0 0 0
12 0.09 -0.26999998 0.03999999 0 0 -0
time 30
0 0 0.87 0 0 0 0
1 0 0.30999994 0 0 0 -0.0068587363
2 0 0.33000004 0 0 0 0.004115242
3 0 -0.01999998 -0.14 0 0 -0.03901806
4 0.025 -0.39000002 -0.010000005 0 0 0.093643345
5 -0.010000001 -0.34 0 0 0 -0.03277517
6 0 -0.01999998 0.14 0 0 -0.03901806
7 0.025 -0.39000002 0.010000005 0 0 0.093643345
8 -0.010000001 -0.34 0 0 0 -0.03277517
9 0 0.17000008 -0.28 0 0 0
10 0.09 -0.26999998 -0.03999999 0 0 -0
11 0 0.17000008 0.28 0 0 0
12 0.09 -0.26999998 0.03999999 0 0 -0
time 31
0 0 0.87 0 0 0 0
1 0 0.30999994 0 0 0 -0.008032857
2 0 0.33000004 0 0 0 0.0048197145
3 0 -0.01999998 -0.14 0 0 -0.01960342
4 0.025 -0.39000002 -0.010000005 0 0 0.047048204
5 -0.010000001 -0.34 0 0 0 -0.01646687
6 0 -0.01999998 0.14 0 0 -0.01960342
7 0.025 -0.39000002 0.010000005 0 0 0.047048204
8 -0.010000001 -0.34 0 0 0 -0.01646687
9 0 0.17000008 -0.28 0 0 0
10 0.09 -0.26999998 -0.03999999 0 0 -0
11 0 0.17000008 0.28 0 0 0
12 0.09 -0.26999998 0.03999999 0 0 -0
time 32
0 0 0.87 0 0 0 0
1 0 0.30999994 0 0 0 -0.00908163
2 0 0.33000004 0 0 0 0.0054489784
3 0 -0.01999998 -0.14 0 0 0.000000017484556
4 0.025 -0.39000002 -0.010000005 0 0 -0.00000004196293
5 -0.010000001 -0.34 0 0 0 0.000000014687026
6 0 -0.01999998 0.14 0 0 0.000000017484556
7 0.025 -0.39000002 0.010000005 0 0 -0.00000004196293
8 -0.010000001 -0.34 0 0 0 0.000000014687026
9 0 0.17000008 -0.28 0 0 0
10 0.09 -0.26999998 -0.03999999 0 0 -0
11 0 0.17000008 0.28 0 0 0
12 0.09 -0.26999998 0.03999999 0 0 -0
end
