version 1
nodes
0 "bone_0" -1
1 "bone_1" 0
2 "bone_2" 1
3 "bone_3" 0
4 "bone_4" 3
5 "bone_5" 4
6 "bone_6" 0
7 "bone_7" 6
8 "bone_8" 7
9 "bone_9" 1
10 "bone_10" 9
11 "bone_11" 1
12 "bone_12" 11
end
skeleton
time 0
0 0 0.87 0 0 0 0
1 0 0.30999994 0 0 0 -0.065
2 0 0.33000004 0 0 0 0.039
3 0 -0.01999998 -0.14 0 0 -0
4 0.025 -0.39000002 -0.010000005 0 0 0
5 -0.010000001 -0.34 0 0 0 -0
6 0 -0.01999998 0.14 0 0 0
7 0.025 -0.39000002 0.010000005 0 0 0
8 -0.010000001 -0.34 0 0 0 -0
9 0 0.17000008 -0.28 0 0 0.1
10 0.09 -0.26999998 -0.03999999 0 0 -0.16
11 0 0.17000008 0.28 0 0 0.1
12 0.09 -0.26999998 0.03999999 0 0 -0.16
time 1
0 0 0.87 0 0 0 0
1 0 0.30999994 0 0 0 -0.049125955
2 0 0.33000004 0 0 0 0.029475573
3 0 -0.01999998 -0.14 0 0 -0
4 0.025 -0.39000002 -0.010000005 0 0 0
5 -0.010000001 -0.34 0 0 0 -0
6 0 -0.01999998 0.14 0 0 0
7 0.025 -0.39000002 0.010000005 0 0 0
8 -0.010000001 -0.34 0 0 0 -0
9 0 0.17000008 -0.28 0 0 0.07788008
10 0.09 -0.26999998 -0.03999999 0 0 -0.12460812
11 0 0.17000008 0.28 0 0 0.07788008
12 0.09 -0.26999998 0.03999999 0 0 -0.12460812
time 2
0 0 0.87 0 0 0 0
1 0 0.30999994 0 0 0 -0.036455642
2 0 0.33000004 0 0 0 0.021873387
3 0 -0.01999998 -0.14 0 0 -0
4 0.025 -0.39000002 -0.010000005 0 0 0
5 -0.010000001 -0.34 0 0 0 -0
6 0 -0.01999998 0.14 0 0 0
7 0.025 -0.39000002 0.010000005 0 0 0
8 -0.010000001 -0.34 0 0 0 -0
9 0 0.17000008 -0.28 0 0 0.060653068
10 0.09 -0.26999998 -0.03999999 0 0 -0.09704491
11 0 0.17000008 0.28 0 0 0.060653068
12 0.09 -0.26999998 0.03999999 0 0 -0.09704491
time 3
0 0 0.87 0 0 0 0
1 0 0.30999994 0 0 0 -0.026308553
2 0 0.33000004 0 0 0 0.015785133
3 0 -0.01999998 -0.14 0 0 -0
4 0.025 -0.39000002 -0.010000005 0 0 0
5 -0.010000001 -0.34 0 0 0 -0
6 0 -0.01999998 0.14 0 0 0
7 0.025 -0.39000002 0.010000005 0 0 0
8 -0.010000001 -0.34 0 0 0 -0
9 0 0.17000008 -0.28 0 0 0.047236655
10 0.09 -0.26999998 -0.03999999 0 0 -0.075578645
11 0 0.17000008 0.28 0 0 0.047236655
12 0.09 -0.26999998 0.03999999 0 0 -0.075578645
time 4
0 0 0.87 0 0 0 0
1 0 0.30999994 0 0 0 -0.018159058
2 0 0.33000004 0 0 0 0.010895435
3 0 -0.01999998 -0.14 0 0 -0
4 0.025 -0.39000002 -0.010000005 0 0 0
5 -0.010000001 -0.34 0 0 0 -0
6 0 -0.01999998 0.14 0 0 0
7 0.025 -0.39000002 0.010000005 0 0 0
8 -0.010000001 -0.34 0 0 0 -0
9 0 0.17000008 -0.28 0 0 0.036787946
10 0.09 -0.26999998 -0.03999999 0 0 -0.05886071
11 0 0.17000008 0.28 0 0 0.036787946
12 0.09 -0.26999998 0.03999999 0 0 -0.05886071
time 5
0 0 0.87 0 0 0 0
1 0 0.30999994 0 0 0 -0.011601645
2 0 0.33000004 0 0 0 0.006960987
3 0 -0.01999998 -0.14 0 0 -0
4 0.025 -0.39000002 -0.010000005 0 0 0
5 -0.010000001 -0.34 0 0 0 -0
6 0 -0.01999998 0.14 0 0 0
7 0.025 -0.39000002 0.010000005 0 0 0
8 -0.010000001 -0.34 0 0 0 -0
9 0 0.17000008 -0.28 0 0 0.028650481
10 0.09 -0.26999998 -0.03999999 0 0 -0.045840766
11 0 0.17000008 0.28 0 0 0.028650481
12 0.09 -0.26999998 0.03999999 0 0 -0.045840766
time 6
0 0 0.87 0 0 0 0
1 0 0.30999994 0 0 0 -0.006323795
2 0 0.33000004 0 0 0 0.003794277
3 0 -0.01999998 -0.14 0 0 -0
4 0.025 -0.39000002 -0.010000005 0 0 0
5 -0.010000001 -0.34 0 0 0 -0
6 0 -0.01999998 0.14 0 0 0
7 0.025 -0.39000002 0.010000005 0 0 0
8 -0.010000001 -0.34 0 0 0 -0
9 0 0.17000008 -0.28 0 0 0.022313017
10 0.09 -0.26999998 -0.03999999 0 0 -0.035700824
11 0 0.17000008 0.28 0 0 0.022313017
12 0.09 -0.26999998 0.03999999 0 0 -0.035700824
time 7
0 0 0.87 0 0 0 0
1 0 0.30999994 0 0 0 -0.0020847833
2 0 0.33000004 0 0 0 0.0012508701
3 0 -0.01999998 -0.14 0 0 -0
4 0.025 -0.39000002 -0.010000005 0 0 0
5 -0.010000001 -0.34 0 0 0 -0
6 0 -0.01999998 0.14 0 0 -0
7 0.025 -0.39000002 0.010000005 0 0 0
8 -0.010000001 -0.34 0 0 0 -0
9 0 0.17000008 -0.28 0 0 0.017377395
10 0.09 -0.26999998 -0.03999999 0 0 -0.02780383
11 0 0.17000008 0.28 0 0 0.017377395
12 0.09 -0.26999998 0.03999999 0 0 -0.02780383
time 8
0 0 0.87 0 0 0 0
1 0 0.30999994 0 0 0 0.0013008583
2 0 0.33000004 0 0 0 -0.000780515
3 0 -0.01999998 -0.14 0 0 0
4 0.025 -0.39000002 -0.010000005 0 0 0
5 -0.010000001 -0.34 0 0 0 -0
6 0 -0.01999998 0.14 0 0 -0
7 0.025 -0.39000002 0.010000005 0 0 0
8 -0.010000001 -0.34 0 0 0 -0
9 0 0.17000008 -0.28 0 0 0.013533528
10 0.09 -0.26999998 -0.03999999 0 0 -0.021653645
11 0 0.17000008 0.28 0 0 0.013533528
12 0.09 -0.26999998 0.03999999 0 0 -0.021653645
time 9
0 0 0.87 0 0 0 0
1 0 0.30999994 0 0 0 0.0039762617
2 0 0.33000004 0 0 0 -0.0023857572
3 0 -0.01999998 -0.14 0 0 0
4 0.025 -0.39000002 -0.010000005 0 0 0
5 -0.010000001 -0.34 0 0 0 -0
6 0 -0.01999998 0.14 0 0 -0
7 0.025 -0.39000002 0.010000005 0 0 0
8 -0.010000001 -0.34 0 0 0 -0
9 0 0.17000008 -0.28 0 0 0.010539922
10 0.09 -0.26999998 -0.03999999 0 0 -0.016863875
11 0 0.17000008 0.28 0 0 0.010539922
12 0.09 -0.26999998 0.03999999 0 0 -0.016863875
time 10
0 0 0.87 0 0 0 0
1 0 0.30999994 0 0 0 0.006052291
2 0 0.33000004 0 0 0 -0.0036313748
3 0 -0.01999998 -0.14 0 0 0
4 0.025 -0.39000002 -0.010000005 0 0 0
5 -0.010000001 -0.34 0 0 0 -0
6 0 -0.01999998 0.14 0 0 -0
7 0.025 -0.39000002 0.010000005 0 0 0
8 -0.010000001 -0.34 0 0 0 -0
9 0 0.17000008 -0.28 0 0 0.0082085
10 0.09 -0.26999998 -0.03999999 0 0 -0.013133599
11 0 0.17000008 0.28 0 0 0.0082085
12 0.09 -0.26999998 0.03999999 0 0 -0.013133599
time 11
0 0 0.87 0 0 0 0
1 0 0.30999994 0 0 0 0.007615406
2 0 0.33000004 0 0 0 -0.0045692436
3 0 -0.01999998 -0.14 0 0 0
4 0.025 -0.39000002 -0.010000005 0 0 0
5 -0.010000001 -0.34 0 0 0 -0
6 0 -0.01999998 0.14 0 0 -0
7 0.025 -0.39000002 0.010000005 0 0 0
8 -0.010000001 -0.34 0 0 0 -0
9 0 0.17000008 -0.28 0 0 0.006392786
10 0.09 -0.26999998 -0.03999999 0 0 -0.010228457
11 0 0.17000008 0.28 0 0 0.006392786
12 0.09 -0.26999998 0.03999999 0 0 -0.010228457
time 12
0 0 0.87 0 0 0 0
1 0 0.30999994 0 0 0 0.008733781
2 0 0.33000004 0 0 0 -0.005240269
3 0 -0.01999998 -0.14 0 0 0
4 0.025 -0.39000002 -0.010000005 0 0 0
5 -0.010000001 -0.34 0 0 0 -0
6 0 -0.01999998 0.14 0 0 -0
7 0.025 -0.39000002 0.010000005 0 0 0
8 -0.010000001 -0.34 0 0 0 -0
9 0 0.17000008 -0.28 0 0 0.0049787066
10 0.09 -0.26999998 -0.03999999 0 0 -0.007965931
11 0 0.17000008 0.28 0 0 0.0049787066
12 0.09 -0.26999998 0.03999999 0 0 -0.007965931
time 13
0 0 0.87 0 0 0 0
1 0 0.30999994 0 0 0 0.009462053
2 0 0.33000004 0 0 0 -0.005677232
3 0 -0.01999998 -0.14 0 0 0
4 0.025 -0.39000002 -0.010000005 0 0 0
5 -0.010000001 -0.34 0 0 0 -0
6 0 -0.01999998 0.14 0 0 -0
7 0.025 -0.39000002 0.010000005 0 0 0
8 -0.010000001 -0.34 0 0 0 -0
9 0 0.17000008 -0.28 0 0 0.0038774207
10 0.09 -0.26999998 -0.03999999 0 0 -0.006203873
11 0 0.17000008 0.28 0 0 0.0038774207
12 0.09 -0.26999998 0.03999999 0 0 -0.006203873
time 14
0 0 0.87 0 0 0 0
1 0 0.30999994 0 0 0 0.009845002
2 0 0.33000004 0 0 0 -0.0059070014
3 0 -0.01999998 -0.14 0 0 0
4 0.025 -0.39000002 -0.010000005 0 0 0
5 -0.010000001 -0.34 0 0 0 -0
6 0 -0.01999998 0.14 0 0 -0
7 0.025 -0.39000002 0.010000005 0 0 0
8 -0.010000001 -0.34 0 0 0 -0
9 0 0.17000008 -0.28 0 0 0.0030197385
10 0.09 -0.26999998 -0.03999999 0 0 -0.0048315814
11 0 0.17000008 0.28 0 0 0.0030197385
12 0.09 -0.26999998 0.03999999 0 0 -0.0048315814
time 15
0 0 0.87 0 0 0 0
1 0 0.30999994 0 0 0 0.009920376
2 0 0.33000004 0 0 0 -0.005952226
3 0 -0.01999998 -0.14 0 0 0
4 0.025 -0.39000002 -0.010000005 0 0 0
5 -0.010000001 -0.34 0 0 0 -0
6 0 -0.01999998 0.14 0 0 -0
7 0.025 -0.39000002 0.010000005 0 0 0
8 -0.010000001 -0.34 0 0 0 -0
9 0 0.17000008 -0.28 0 0 0.0023517746
10 0.09 -0.26999998 -0.03999999 0 0 -0.0037628394
11 0 0.17000008 0.28 0 0 0.0023517746
12 0.09 -0.26999998 0.03999999 0 0 -0.0037628394
time 16
0 0 0.87 0 0 0 0
1 0 0.30999994 0 0 0 0.009721053
2 0 0.33000004 0 0 0 -0.005832632
3 0 -0.01999998 -0.14 0 0 0
4 0.025 -0.39000002 -0.010000005 0 0 0
5 -0.010000001 -0.34 0 0 0 -0
6 0 -0.01999998 0.14 0 0 -0
7 0.025 -0.39000002 0.010000005 0 0 0
8 -0.010000001 -0.34 0 0 0 -0
9 0 0.17000008 -0.28 0 0 0.001831564
10 0.09 -0.26999998 -0.03999999 0 0 -0.0029305022
11 0 0.17000008 0.28 0 0 0.001831564
12 0.09 -0.26999998 0.03999999 0 0 -0.0029305022
time 17
0 0 0.87 0 0 0 0
1 0 0.30999994 0 0 0 0.009276662
2 0 0.33000004 0 0 0 -0.005565997
3 0 -0.01999998 -0.14 0 0 0
4 0.025 -0.39000002 -0.010000005 0 0 0
5 -0.010000001 -0.34 0 0 0 -0
6 0 -0.01999998 0.14 0 0 -0
7 0.025 -0.39000002 0.010000005 0 0 0
8 -0.010000001 -0.34 0 0 0 -0
9 0 0.17000008 -0.28 0 0 0.0014264234
10 0.09 -0.26999998 -0.03999999 0 0 -0.0022822774
11 0 0.17000008 0.28 0 0 0.0014264234
12 0.09 -0.26999998 0.03999999 0 0 -0.0022822774
time 18
0 0 0.87 0 0 0 0
1 0 0.30999994 0 0 0 0.008614793
2 0 0.33000004 0 0 0 -0.005168876
3 0 -0.01999998 -0.14 0 0 0
4 0.025 -0.39000002 -0.010000005 0 0 0
5 -0.010000001 -0.34 0 0 0 -0
6 0 -0.01999998 0.14 0 0 -0
7 0.025 -0.39000002 0.010000005 0 0 0
8 -0.010000001 -0.34 0 0 0 -0
9 0 0.17000008 -0.28 0 0 0.0011108996
10 0.09 -0.26999998 -0.03999999 0 0 -0.0017774394
11 0 0.17000008 0.28 0 0 0.0011108996
12 0.09 -0.26999998 0.03999999 0 0 -0.0017774394
time 19
0 0 0.87 0 0 0 0
1 0 0.30999994 0 0 0 0.0077618607
2 0 0.33000004 0 0 0 -0.0046571167
3 0 -0.01999998 -0.14 0 0 0
4 0.025 -0.39000002 -0.010000005 0 0 0
5 -0.010000001 -0.34 0 0 0 -0
6 0 -0.01999998 0.14 0 0 -0
7 0.025 -0.39000002 0.010000005 0 0 0
8 -0.010000001 -0.34 0 0 0 -0
9 0 0.17000008 -0.28 0 0 0.0008651695
10 0.09 -0.26999998 -0.03999999 0 0 -0.0013842712
11 0 0.17000008 0.28 0 0 0.0008651695
12 0.09 -0.26999998 0.03999999 0 0 -0.0013842712
time 20
0 0 0.87 0 0 0 0
1 0 0.30999994 0 0 0 0.006743699
2 0 0.33000004 0 0 0 -0.0040462194
3 0 -0.01999998 -0.14 0 0 0
4 0.025 -0.39000002 -0.010000005 0 0 0
5 -0.010000001 -0.34 0 0 0 -0
6 0 -0.01999998 0.14 0 0 -0
7 0.025 -0.39000002 0.010000005 0 0 0
8 -0.010000001 -0.34 0 0 0 -0
9 0 0.17000008 -0.28 0 0 0.0006737947
10 0.09 -0.26999998 -0.03999999 0 0 -0.0010780715
11 0 0.17000008 0.28 0 0 0.0006737947
12 0.09 -0.26999998 0.03999999 0 0 -0.0010780715
time 21
0 0 0.87 0 0 0 0
1 0 0.30999994 0 0 0 0.005585955
2 0 0.33000004 0 0 0 -0.0033515731
3 0 -0.01999998 -0.14 0 0 0
4 0.025 -0.39000002 -0.010000005 0 0 0
5 -0.010000001 -0.34 0 0 0 -0
6 0 -0.01999998 0.14 0 0 -0
7 0.025 -0.39000002 0.010000005 0 0 0
8 -0.010000001 -0.34 0 0 0 -0
9 0 0.17000008 -0.28 0 0 0.00052475184
10 0.09 -0.26999998 -0.03999999 0 0 -0.0008396029
11 0 0.17000008 0.28 0 0 0.00052475184
12 0.09 -0.26999998 0.03999999 0 0 -0.0008396029
time 22
0 0 0.87 0 0 0 0
1 0 0.30999994 0 0 0 0.0043142918
2 0 0.33000004 0 0 0 -0.0025885752
3 0 -0.01999998 -0.14 0 0 0
4 0.025 -0.39000002 -0.010000005 0 0 0
5 -0.010000001 -0.34 0 0 0 -0
6 0 -0.01999998 0.14 0 0 -0
7 0.025 -0.39000002 0.010000005 0 0 0
8 -0.010000001 -0.34 0 0 0 -0
9 0 0.17000008 -0.28 0 0 0.00040867715
10 0.09 -0.26999998 -0.03999999 0 0 -0.00065388344
11 0 0.17000008 0.28 0 0 0.00040867715
12 0.09 -0.26999998 0.03999999 0 0 -0.00065388344
time 23
0 0 0.87 0 0 0 0
1 0 0.30999994 0 0 0 0.0029544714
2 0 0.33000004 0 0 0 -0.0017726829
3 0 -0.01999998 -0.14 0 0 -0
4 0.025 -0.39000002 -0.010000005 0 0 0
5 -0.010000001 -0.34 0 0 0 -0
6 0 -0.01999998 0.14 0 0 -0
7 0.025 -0.39000002 0.010000005 0 0 0
8 -0.010000001 -0.34 0 0 0 -0
9 0 0.17000008 -0.28 0 0 0.00031827806
10 0.09 -0.26999998 -0.03999999 0 0 -0.0005092449
11 0 0.17000008 0.28 0 0 0.00031827806
12 0.09 -0.26999998 0.03999999 0 0 -0.0005092449
time 24
0 0 0.87 0 0 0 0
1 0 0.30999994 0 0 0 0.0015323211
2 0 0.33000004 0 0 0 -0.0009193927
3 0 -0.01999998 -0.14 0 0 -0
4 0.025 -0.39000002 -0.010000005 0 0 0
5 -0.010000001 -0.34 0 0 0 -0
6 0 -0.01999998 0.14 0 0 0
7 0.025 -0.39000002 0.010000005 0 0 0
8 -0.010000001 -0.34 0 0 0 -0
9 0 0.17000008 -0.28 0 0 0.00024787523
10 0.09 -0.26999998 -0.03999999 0 0 -0.00039660034
11 0 0.17000008 0.28 0 0 0.00024787523
12 0.09 -0.26999998 0.03999999 0 0 -0.00039660034
time 25
0 0 0.87 0 0 0 0
1 0 0.30999994 0 0 0 0.000073623174
2 0 0.33000004 0 0 0 -0.000044173907
3 0 -0.01999998 -0.14 0 0 -0
4 0.025 -0.39000002 -0.010000005 0 0 0
5 -0.010000001 -0.34 0 0 0 -0
6 0 -0.01999998 0.14 0 0 0
7 0.025 -0.39000002 0.010000005 0 0 0
8 -0.010000001 -0.34 0 0 0 -0
9 0 0.17000008 -0.28 0 0 0.00019304542
10 0.09 -0.26999998 -0.03999999 0 0 -0.00030887267
11 0 0.17000008 0.28 0 0 0.00019304542
12 0.09 -0.26999998 0.03999999 0 0 -0.00030887267
time 26
0 0 0.87 0 0 0 0
1 0 0.30999994 0 0 0 -0.0013960652
2 0 0.33000004 0 0 0 0.00083763915
3 0 -0.01999998 -0.14 0 0 -0
4 0.025 -0.39000002 -0.010000005 0 0 0
5 -0.010000001 -0.34 0 0 0 -0
6 0 -0.01999998 0.14 0 0 0
7 0.025 -0.39000002 0.010000005 0 0 0
8 -0.010000001 -0.34 0 0 0 -0
9 0 0.17000008 -0.28 0 0 0.00015034391
10 0.09 -0.26999998 -0.03999999 0 0 -0.00024055026
11 0 0.17000008 0.28 0 0 0.00015034391
12 0.09 -0.26999998 0.03999999 0 0 -0.00024055026
time 27
0 0 0.87 0 0 0 0
1 0 0.30999994 0 0 0 -0.002851633
2 0 0.33000004 0 0 0 0.0017109799
3 0 -0.01999998 -0.14 0 0 -0
4 0.025 -0.39000002 -0.010000005 0 0 0
5 -0.010000001 -0.34 0 0 0 -0
6 0 -0.01999998 0.14 0 0 0
7 0.025 -0.39000002 0.010000005 0 0 0
8 -0.010000001 -0.34 0 0 0 -0
9 0 0.17000008 -0.28 0 0 0.00011708796
10 0.09 -0.26999998 -0.03999999 0 0 -0.00018734073
11 0 0.17000008 0.28 0 0 0.00011708796
12 0.09 -0.26999998 0.03999999 0 0 -0.00018734073
time 28
0 0 0.87 0 0 0 0
1 0 0.30999994 0 0 0 -0.004268671
2 0 0.33000004 0 0 0 0.0025612027
3 0 -0.01999998 -0.14 0 0 -0
4 0.025 -0.39000002 -0.010000005 0 0 0
5 -0.010000001 -0.34 0 0 0 -0
6 0 -0.01999998 0.14 0 0 0
7 0.025 -0.39000002 0.010000005 0 0 0
8 -0.010000001 -0.34 0 0 0 -0
9 0 0.17000008 -0.28 0 0 0.0000911882
10 0.09 -0.26999998 -0.03999999 0 0 -0.00014590111
11 0 0.17000008 0.28 0 0 0.0000911882
12 0.09 -0.26999998 0.03999999 0 0 -0.00014590111
time 29
0 0 0.87 0 0 0 0
1 0 0.30999994 0 0 0 -0.0056237467
2 0 0.33000004 0 0 0 0.003374248
3 0 -0.01999998 -0.14 0 0 -0
4 0.025 -0.39000002 -0.010000005 0 0 0
5 -0.010000001 -0.34 0 0 0 -0
6 0 -0.01999998 0.14 0 0 0
7 0.025 -0.39000002 0.010000005 0 0 0
8 -0.010000001 -0.34 0 0 0 -0
9 0 0.17000008 -0.28 0 0 0.00007101744
10 0.09 -0.26999998 -0.03999999 0 0 -0.000113627895
11 0 0.17000008 0.28 0 0 0.00007101744
12 0.09 -0.26999998 0.03999999 0 0 -0.000113627895
time 30
0 0 0.87 0 0 0 0
1 0 0.30999994 0 0 0 -0.0068946867
2 0 0.33000004 0 0 0 0.0041368124
3 0 -0.01999998 -0.14 0 0 -0
4 0.025 -0.39000002 -0.010000005 0 0 0
5 -0.010000001 -0.34 0 0 0 -0
6 0 -0.01999998 0.14 0 0 0
7 0.025 -0.39000002 0.010000005 0 0 0
8 -0.010000001 -0.34 0 0 0 -0
9 0 0.17000008 -0.28 0 0 0.000055308436
10 0.09 -0.26999998 -0.03999999 0 0 -0.00008849349
11 0 0.17000008 0.28 0 0 0.000055308436
12 0.09 -0.26999998 0.03999999 0 0 -0.00008849349
time 31
0 0 0.87 0 0 0 0
1 0 0.30999994 0 0 0 -0.008060856
2 0 0.33000004 0 0 0 0.0048365137
3 0 -0.01999998 -0.14 0 0 -0
4 0.025 -0.39000002 -0.010000005 0 0 0
5 -0.010000001 -0.34 0 0 0 -0
6 0 -0.01999998 0.14 0 0 0
7 0.025 -0.39000002 0.010000005 0 0 0
8 -0.010000001 -0.34 0 0 0 -0
9 0 0.17000008 -0.28 0 0 0.000043074255
10 0.09 -0.26999998 -0.03999999 0 0 -0.0000689188
11 0 0.17000008 0.28 0 0 0.000043074255
12 0.09 -0.26999998 0.03999999 0 0 -0.0000689188
time 32
0 0 0.87 0 0 0 0
1 0 0.30999994 0 0 0 -0.009103435
2 0 0.33000004 0 0 0 0.005462061
3 0 -0.01999998 -0.14 0 0 -0
4 0.025 -0.39000002 -0.010000005 0 0 0
5 -0.010000001 -0.34 0 0 0 -0
6 0 -0.01999998 0.14 0 0 0
7 0.025 -0.39000002 0.010000005 0 0 0
8 -0.010000001 -0.34 0 0 0 -0
9 0 0.17000008 -0.28 0 0 0.000033546265
10 0.09 -0.26999998 -0.03999999 0 0 -0.00005367402
11 0 0.17000008 0.28 0 0 0.000033546265
12 0.09 -0.26999998 0.03999999 0 0 -0.00005367402
end
